<?xml version="1.0" standalone="no"?>
<!DOCTYPE svg PUBLIC "-//W3C//DTD SVG 20010904//EN"
 "http://www.w3.org/TR/2001/REC-SVG-20010904/DTD/svg10.dtd">
<svg version="1.0" xmlns="http://www.w3.org/2000/svg"
 width="300.000000pt" height="300.000000pt" viewBox="0 0 300.000000 300.000000"
 preserveAspectRatio="xMidYMid meet">
<metadata>
Created by potrace 1.10, written by Peter Selinger 2001-2011
</metadata>
<g transform="translate(0.000000,300.000000) scale(0.100000,-0.100000)"
fill="#4169e1" stroke="none">
<path d="M1355 2993 c-195 -23 -367 -74 -531 -156 -420 -212 -713 -604 -800
-1072 -26 -138 -26 -392 0 -530 129 -693 703 -1195 1406 -1231 587 -31 1137
290 1405 818 116 230 159 412 159 678 0 266 -43 448 -159 678 -259 509 -780
827 -1345 820 -58 0 -118 -3 -135 -5z m295 -893 l0 -150 -150 0 -150 0 0 150
0 150 150 0 150 0 0 -150z m0 -900 l0 -450 -150 0 -150 0 0 450 0 450 150 0
150 0 0 -450z"/>
</g>
</svg>
