<?xml version="1.0" standalone="no"?>
<!DOCTYPE svg PUBLIC "-//W3C//DTD SVG 20010904//EN"
 "http://www.w3.org/TR/2001/REC-SVG-20010904/DTD/svg10.dtd">
<svg version="1.0" xmlns="http://www.w3.org/2000/svg"
 width="300.000000pt" height="300.000000pt" viewBox="0 0 300.000000 300.000000"
 preserveAspectRatio="xMidYMid meet">
<metadata>
Created by potrace 1.10, written by Peter Selinger 2001-2011
</metadata>
<g transform="translate(0.000000,300.000000) scale(0.050000,-0.050000)"
fill="#808080" stroke="none">
<path d="M2710 5987 c-3003 -360 -3727 -4331 -1034 -5676 2345 -1170 4955
1074 4182 3596 -404 1319 -1801 2241 -3148 2080z m590 -1787 l0 -300 -300 0
-300 0 0 300 0 300 300 0 300 0 0 -300z m0 -1800 l0 -900 -300 0 -300 0 0 900
0 900 300 0 300 0 0 -900z"/>
</g>
</svg>
