<?xml version="1.0" standalone="no"?>
<!DOCTYPE svg PUBLIC "-//W3C//DTD SVG 20010904//EN"
 "http://www.w3.org/TR/2001/REC-SVG-20010904/DTD/svg10.dtd">
<svg version="1.0" xmlns="http://www.w3.org/2000/svg"
 width="300.000000pt" height="300.000000pt" viewBox="0 0 300.000000 300.000000"
 preserveAspectRatio="xMidYMid meet">
<metadata>
Created by potrace 1.10, written by Peter Selinger 2001-2011
</metadata>
<g transform="translate(0.000000,300.000000) scale(0.100000,-0.100000)"
fill="#4169e1" stroke="none">
<path d="M955 2990 c-572 -89 -983 -592 -952 -1165 15 -280 129 -531 331 -730
100 -99 178 -155 301 -215 279 -136 621 -144 916 -21 60 25 206 113 275 166 9
6 21 2 39 -15 22 -20 25 -32 25 -89 l0 -66 428 -428 427 -427 128 128 127 127
-428 428 -427 427 -64 0 c-56 0 -69 4 -92 26 l-27 26 54 71 c238 316 280 771
104 1132 -60 123 -116 201 -215 301 -209 212 -459 321 -755 329 -74 2 -162 0
-195 -5z m345 -356 c434 -107 689 -571 545 -994 -156 -459 -686 -663 -1109
-426 -182 102 -319 282 -371 491 -24 93 -24 265 -1 360 51 214 205 407 400
506 172 86 353 107 536 63z"/>
</g>
</svg>
