<?xml version="1.0" standalone="no"?>
<!DOCTYPE svg PUBLIC "-//W3C//DTD SVG 20010904//EN"
 "http://www.w3.org/TR/2001/REC-SVG-20010904/DTD/svg10.dtd">
<svg version="1.0" xmlns="http://www.w3.org/2000/svg"
 width="300.000000pt" height="300.000000pt" viewBox="0 0 300.000000 300.000000"
 preserveAspectRatio="xMidYMid meet">
<metadata>
Created by potrace 1.10, written by Peter Selinger 2001-2011
</metadata>
<g transform="translate(0.000000,300.000000) scale(0.100000,-0.100000)"
fill="#4169e1" stroke="none">
<path d="M1128 2791 c-153 -49 -263 -161 -310 -315 -17 -55 -20 -86 -16 -161
4 -81 10 -104 41 -170 88 -184 277 -287 482 -263 178 20 330 146 386 320 31
97 25 238 -14 323 -84 181 -244 286 -436 284 -45 0 -99 -8 -133 -18z"/>
<path d="M1117 1770 c-301 -54 -551 -249 -699 -545 -67 -133 -118 -327 -134
-508 l-6 -77 93 -44 c329 -153 690 -232 984 -216 l90 5 27 109 26 109 309 309
308 308 -32 63 c-42 80 -148 213 -216 270 -178 150 -349 216 -572 222 -71 2
-152 0 -178 -5z"/>
<path d="M2455 1406 c-66 -29 -65 -32 79 -175 l133 -133 21 34 c42 68 38 154
-11 221 -43 58 -151 84 -222 53z"/>
<path d="M1970 935 l-365 -365 133 -132 132 -133 360 360 c198 198 360 364
360 370 0 6 -57 68 -128 138 l-127 127 -365 -365z"/>
<path d="M1535 358 c-14 -62 -28 -123 -31 -134 -6 -21 -4 -21 128 9 73 16 135
32 137 34 6 4 -191 203 -200 203 -4 0 -19 -51 -34 -112z"/>
</g>
</svg>
