<?xml version="1.0" standalone="no"?>
<!DOCTYPE svg PUBLIC "-//W3C//DTD SVG 20010904//EN"
 "http://www.w3.org/TR/2001/REC-SVG-20010904/DTD/svg10.dtd">
<svg version="1.0" xmlns="http://www.w3.org/2000/svg"
 width="300.000000pt" height="91.000000pt" viewBox="0 0 300.000000 91.000000"
 preserveAspectRatio="xMidYMid meet">
<metadata>
Created by potrace 1.10, written by Peter Selinger 2001-2011
</metadata>
<g transform="translate(0.000000,91.000000) scale(0.050000,-0.050000)"
fill="#4169e1" stroke="none">
<path d="M3134 1768 c-270 -72 -473 -188 -669 -381 -190 -188 -169 -115 25 83
137 141 252 213 445 282 74 26 114 47 89 48 -246 2 -633 -284 -765 -566 l-60
-127 -164 38 c-733 169 -1422 -23 -1640 -457 -121 -240 -66 -208 126 74 119
174 381 326 629 365 70 11 65 7 -43 -35 -261 -103 -527 -322 -527 -435 0 -65
83 -1 110 84 8 25 23 33 46 24 29 -10 30 -8 9 19 -22 26 -17 33 33 43 34 6 64
28 71 51 7 22 39 51 71 65 31 14 54 31 49 38 -32 52 773 117 851 69 53 -33
374 -34 437 -2 35 19 74 27 87 20 13 -8 17 -5 9 8 -8 11 7 36 32 53 25 17 45
38 46 46 2 51 53 101 94 93 25 -5 34 -3 20 4 -24 11 58 94 100 101 8 1 26 3
40 5 18 2 17 8 -4 21 -22 14 -16 21 30 32 32 8 70 28 84 45 14 18 25 25 25 16
0 -8 42 8 93 36 50 29 112 52 137 52 25 0 51 13 56 28 25 63 311 111 330 55 4
-13 15 -19 24 -13 9 6 32 -5 51 -24 19 -19 52 -37 73 -40 58 -9 119 -46 107
-64 -6 -9 6 -16 26 -14 19 1 65 -23 101 -53 36 -30 59 -55 52 -55 -7 0 5 -30
28 -67 23 -37 44 -94 47 -125 9 -106 188 -244 335 -257 77 -8 141 -34 129 -53
-6 -10 4 -18 23 -18 19 0 28 -6 21 -14 -8 -8 6 -25 30 -38 24 -13 46 -40 49
-61 2 -20 10 -63 17 -95 8 -35 4 -64 -10 -72 -23 -15 27 -80 61 -80 57 0 104
113 96 234 -15 231 -183 357 -459 342 l-132 -7 -12 116 c-34 318 -269 554
-585 586 -65 6 -136 14 -158 18 -22 3 -119 -15 -216 -41z m1317 -729 c125 -47
210 -171 208 -303 -3 -135 -36 -189 -38 -60 -2 178 -83 298 -242 362 -32 13
-38 20 -15 21 18 0 58 -8 87 -20z"/>
<path d="M4638 505 c-2 -8 -2 -22 0 -30 1 -8 -9 -15 -23 -15 -17 -1 -15 -7 5
-20 25 -16 23 -20 -10 -21 -40 -2 -40 -2 0 -20 28 -13 13 -16 -50 -8 -166 21
-440 27 -440 9 0 -10 -29 -21 -65 -26 -51 -7 -46 -9 25 -10 50 -1 252 -25 450
-53 596 -87 690 -86 690 9 0 36 -111 147 -173 173 -69 28 -405 38 -409 12z
m397 -38 c42 -18 93 -55 114 -84 l39 -51 -73 56 c-41 31 -112 68 -159 83 -55
17 -70 27 -41 28 25 0 79 -14 120 -32z m-97 -99 c34 -7 62 -21 62 -32 0 -10
-10 -12 -22 -5 -12 8 -57 13 -100 13 -43 -1 -78 7 -78 17 0 22 49 24 138 7z"/>
<path d="M600 479 c-419 -57 -602 -136 -599 -257 1 -50 2 -51 19 -8 67 165
351 167 731 5 240 -103 589 -185 589 -139 0 11 -13 20 -30 20 -16 0 -46 16
-67 37 -20 20 -53 43 -74 51 -31 12 -33 17 -9 32 16 10 34 11 39 3 6 -8 43
-15 81 -16 144 -1 180 -8 175 -31 -3 -14 32 -31 85 -41 50 -10 145 -31 212
-48 67 -16 207 -31 310 -32 137 -2 169 -6 118 -17 -68 -15 -68 -15 10 -7 44 4
132 13 195 18 63 6 211 43 330 84 373 127 817 118 2015 -41 668 -89 789 -101
750 -74 -16 11 -79 27 -140 35 l-110 15 90 14 c50 8 152 5 227 -6 125 -18 272
-10 346 18 16 6 41 34 57 63 27 50 28 50 29 9 1 -25 -26 -65 -64 -96 l-65 -53
63 31 c113 56 119 160 13 252 -167 148 -341 156 -491 24 -65 -56 -36 -67 36
-12 141 107 389 62 389 -71 0 -152 -798 -144 -1700 18 -588 105 -1010 100
-1610 -20 -569 -113 -679 -105 -961 74 -274 174 -571 224 -989 166z m950 -206
c143 -115 150 -124 56 -73 -47 26 -114 78 -150 116 -79 83 -43 67 94 -43z"/>
</g>
</svg>
